<?xml version="1.0" encoding="utf-8"?>
<!-- Generator: Adobe Illustrator 22.1.0, SVG Export Plug-In . SVG Version: 6.00 Build 0)  -->
<svg version="1.1" id="Layer_1" xmlns="http://www.w3.org/2000/svg" xmlns:xlink="http://www.w3.org/1999/xlink" x="0px" y="0px"
	 viewBox="0 0 87.3 85.7" style="enable-background:new 0 0 87.3 85.7;" xml:space="preserve">
<style type="text/css">
	.st0{fill:#F15A29;}
</style>
<g>
	<g>
		<g>
			<g>
				<g>
					<path class="st0" d="M61.2,15.1H55V8.9h6.1V15.1z M56.2,13.9H60v-3.9h-3.9V13.9z"/>
				</g>
			</g>
			<g>
				<g>
					<path class="st0" d="M68.3,15.1h-6.1V8.9h6.1V15.1z M63.3,13.9h3.9v-3.9h-3.9V13.9z"/>
				</g>
			</g>
			<g>
				<g>
					<path class="st0" d="M61.2,22.3H55v-6.1h6.1V22.3z M56.2,21.2H60v-3.9h-3.9V21.2z"/>
				</g>
			</g>
			<g>
				<g>
					<g>
						<rect x="62.2" y="16.2" class="st0" width="3.1" height="1.1"/>
					</g>
				</g>
			</g>
			<g>
				<g>
					<g>
						<rect x="65" y="16.2" class="st0" width="1.1" height="2.3"/>
					</g>
				</g>
			</g>
			<g>
				<g>
					<g>
						<rect x="67.2" y="16.2" class="st0" width="1.1" height="4.5"/>
					</g>
				</g>
			</g>
			<g>
				<g>
					<g>
						<rect x="65" y="17.6" class="st0" width="1.5" height="1.1"/>
					</g>
				</g>
			</g>
			<g>
				<g>
					<g>
						<rect x="64.1" y="19.3" class="st0" width="2.5" height="1.1"/>
					</g>
				</g>
			</g>
			<g>
				<g>
					<polygon class="st0" points="68.4,22.4 64,22.3 64,21.2 68.4,21.2 					"/>
				</g>
			</g>
			<g>
				<g>
					<g>
						<rect x="62.2" y="18.2" class="st0" width="1.1" height="4.1"/>
					</g>
				</g>
			</g>
			<g>
				<path class="st0" d="M63.7,22.2"/>
			</g>
		</g>
		<path class="st0" d="M86.3,53.1c0-0.1-0.1-0.3-0.1-0.4c-0.1-0.3-0.1-0.7-0.2-1.2c-0.5-2.8-1.7-9.3-1.5-11.8
			c0.2-3.4-0.2-4.6-2.2-6.4c-1.7-1.5-3.9-3.7-4.7-5.6c-0.8-1.7-2.2-2.3-3.1-2.5V5.7c0-2.7-2.2-4.8-4.8-4.8H53.9
			c-2.7,0-4.8,2.2-4.8,4.8v33.8c0,2.7,2.2,4.8,4.8,4.8h2.9c-0.2,0.8-0.3,1.8,0.1,2.8c1.1,2.8,3.7,2.3,5.8,2l0.4-0.1
			c1.5-0.3,1.7,0.1,2,0.6c0,0,0,0.1,0.1,0.1c2.1,3.6,5.1,5.8,6.1,6.4c0.4,1,0.7,1.9,0.7,1.9c0.1,0.2,0.1,0.3,0.3,0.4
			c0.2,0.2,1.2,1.1,3.8,1.1c1.2,0,2.8-0.2,4.8-0.8C86.1,57.2,86.8,55.8,86.3,53.1z M53.9,42.1c-1.5,0-2.6-1.2-2.6-2.6V5.7
			c0-1.5,1.2-2.6,2.6-2.6h15.6c1.5,0,2.6,1.2,2.6,2.6v29.5c-3.1-2.2-6.1-4.4-6.5-4.8c-0.5-0.5-2.1-1.6-3.8-1.6c-1.1,0-2,0.3-2.7,1
			c-0.7,0.7-1,1.5-1,2.4c0.1,1.4,1,2.6,1.6,3.3c-0.9,1-1.1,2.6-0.4,3.9c0.6,1.1,1.7,1.6,2.9,1.6c0.6,0,1.1-0.1,1.7-0.4
			c0.1-0.1,0.2-0.1,0.3-0.2c0.4,0.6,0.9,1.1,1.2,1.7h-6.6H53.9z M61.4,37.1c0.4,0.5,0.9,1,1.5,1.6c-0.3,0.1-0.5,0.2-0.8,0.1
			c-0.3-0.1-0.5-0.3-0.7-0.5C61.1,38,61.1,37.5,61.4,37.1z M84.1,54.9c-0.4,0.6-1.8,1.2-4,1.9c-3.9,1.2-5.7,0.6-6.2,0.3
			c-0.1-0.4-0.4-1.2-0.7-2c-0.1-0.2-0.2-0.4-0.4-0.5c0,0-3.4-2.1-5.7-5.9c-0.5-1.1-1.5-2.3-4.3-1.8l-0.4,0.1c-2.4,0.4-3,0.4-3.4-0.6
			c-0.4-1.1,0.2-1.9,0.2-2l0.1-0.1h7.2c0.4,3.6,1.8,6.3,4.2,8.3c0.5,0.4,1.2,0.3,1.5-0.1c0.4-0.5,0.3-1.2-0.1-1.5
			c-2-1.7-3.1-4-3.5-7.1c0-0.1,0-0.1,0-0.2c-0.8-3.1-5.9-8.3-6.5-8.9c0,0,0,0-0.1-0.1c-0.4-0.3-1.6-1.5-1.6-2.5c0-0.2,0-0.5,0.3-0.8
			c1-1,3.1,0.2,3.4,0.5c0.5,0.5,5.7,4.2,8.7,6.3c0.3,0.2,0.8,0.3,1.1,0.1c0.4-0.2,0.6-0.6,0.6-1v-9.9c0.4,0.2,0.8,0.5,1,1.1
			c1.2,2.8,4.4,5.6,5.3,6.4c1.4,1.2,1.7,1.7,1.5,4.6c-0.2,2.8,1,9.3,1.6,12.4c0.1,0.5,0.2,0.9,0.2,1.2c0,0.2,0.1,0.3,0.1,0.4
			C84.3,54.4,84.3,54.6,84.1,54.9z"/>
		<rect x="57" y="10.9" class="st0" width="2.2" height="2.2"/>
		<rect x="57" y="18.3" class="st0" width="2.2" height="2.2"/>
		<rect x="64.2" y="10.9" class="st0" width="2.2" height="2.2"/>
	</g>
	<path class="st0" d="M47.6,41.4v-7.6c-2.4,0.6-4.3,2.2-5.8,4.6c-1.5-3.2-4.5-4.9-8.9-4.9c-1.5,0-3,0.4-4.3,1.2
		c-1.3,0.8-2.3,1.9-2.9,3.4v-4h-8.3v27.8h8.3V47.2c0-2,0.5-3.4,1.4-4.3c0.9-0.9,2.1-1.3,3.4-1.3c1.3,0,2.3,0.5,3.2,1.4
		c0.9,1,1.3,2.3,1.4,3.9v15h8.3V47.2c0-1.9,0.4-3.3,1.3-4.2c0.8-0.8,1.8-1.3,3.1-1.4C47.6,41.5,47.6,41.5,47.6,41.4z"/>
	<path class="st0" d="M55,46.2h-2.5c0,0.3,0.1,0.6,0.1,0.9v14.8h8.2V51.4C55.8,51.1,55,48,55,46.2z"/>
	<path class="st0" d="M73.2,66.4C71.8,74.1,65.1,80,56.9,80H22.1c-9.1,0-16.6-7.4-16.6-16.6V28.5c0-9.1,7.4-16.6,16.6-16.6h20.8V7.2
		H22.1c-11.8,0-21.3,9.6-21.3,21.3v34.9c0,11.8,9.6,21.3,21.3,21.3h34.9c10.7,0,19.6-8,21.1-18.3H73.2z"/>
</g>
</svg>
